<svg width="800" height="600" viewBox="0 0 800 600" fill="none" xmlns="http://www.w3.org/2000/svg">
  <!-- Background -->
  <defs>
    <linearGradient id="aboutGradient" x1="0%" y1="0%" x2="100%" y2="100%">
      <stop offset="0%" style="stop-color:#f6f5f1;stop-opacity:1" />
      <stop offset="100%" style="stop-color:#b2ab70;stop-opacity:0.3" />
    </linearGradient>
  </defs>
  
  <rect width="800" height="600" fill="url(#aboutGradient)"/>
  
  <!-- Hotel exterior -->
  <rect x="100" y="200" width="600" height="300" fill="#0a0d29" opacity="0.8" rx="20"/>
  
  <!-- Architectural details -->
  <rect x="150" y="150" width="100" height="50" fill="#0a0d29" opacity="0.9" rx="10"/>
  <rect x="300" y="120" width="200" height="80" fill="#0a0d29" opacity="0.9" rx="15"/>
  <rect x="550" y="160" width="120" height="40" fill="#0a0d29" opacity="0.9" rx="8"/>
  
  <!-- Windows with warm lighting -->
  <rect x="140" y="250" width="25" height="35" fill="#b2ab70" opacity="0.8" rx="5"/>
  <rect x="180" y="250" width="25" height="35" fill="#b2ab70" opacity="0.6" rx="5"/>
  <rect x="220" y="250" width="25" height="35" fill="#b2ab70" opacity="0.9" rx="5"/>
  <rect x="260" y="250" width="25" height="35" fill="#b2ab70" opacity="0.7" rx="5"/>
  <rect x="300" y="250" width="25" height="35" fill="#b2ab70" opacity="0.8" rx="5"/>
  <rect x="340" y="250" width="25" height="35" fill="#b2ab70" opacity="0.9" rx="5"/>
  <rect x="380" y="250" width="25" height="35" fill="#b2ab70" opacity="0.6" rx="5"/>
  <rect x="420" y="250" width="25" height="35" fill="#b2ab70" opacity="0.8" rx="5"/>
  <rect x="460" y="250" width="25" height="35" fill="#b2ab70" opacity="0.7" rx="5"/>
  <rect x="500" y="250" width="25" height="35" fill="#b2ab70" opacity="0.9" rx="5"/>
  <rect x="540" y="250" width="25" height="35" fill="#b2ab70" opacity="0.8" rx="5"/>
  <rect x="580" y="250" width="25" height="35" fill="#b2ab70" opacity="0.6" rx="5"/>
  <rect x="620" y="250" width="25" height="35" fill="#b2ab70" opacity="0.9" rx="5"/>
  
  <rect x="140" y="320" width="25" height="35" fill="#b2ab70" opacity="0.7" rx="5"/>
  <rect x="180" y="320" width="25" height="35" fill="#b2ab70" opacity="0.9" rx="5"/>
  <rect x="220" y="320" width="25" height="35" fill="#b2ab70" opacity="0.6" rx="5"/>
  <rect x="260" y="320" width="25" height="35" fill="#b2ab70" opacity="0.8" rx="5"/>
  <rect x="300" y="320" width="25" height="35" fill="#b2ab70" opacity="0.9" rx="5"/>
  <rect x="340" y="320" width="25" height="35" fill="#b2ab70" opacity="0.7" rx="5"/>
  <rect x="380" y="320" width="25" height="35" fill="#b2ab70" opacity="0.8" rx="5"/>
  <rect x="420" y="320" width="25" height="35" fill="#b2ab70" opacity="0.6" rx="5"/>
  <rect x="460" y="320" width="25" height="35" fill="#b2ab70" opacity="0.9" rx="5"/>
  <rect x="500" y="320" width="25" height="35" fill="#b2ab70" opacity="0.8" rx="5"/>
  <rect x="540" y="320" width="25" height="35" fill="#b2ab70" opacity="0.7" rx="5"/>
  <rect x="580" y="320" width="25" height="35" fill="#b2ab70" opacity="0.9" rx="5"/>
  <rect x="620" y="320" width="25" height="35" fill="#b2ab70" opacity="0.6" rx="5"/>
  
  <!-- Main entrance -->
  <rect x="370" y="420" width="60" height="80" fill="#b2ab70" opacity="0.9" rx="15"/>
  <ellipse cx="400" cy="410" rx="40" ry="15" fill="#b2ab70" opacity="0.5"/>
  
  <!-- Landscaping -->
  <ellipse cx="50" cy="450" rx="40" ry="80" fill="#16446e" opacity="0.4"/>
  <ellipse cx="30" cy="400" rx="60" ry="40" fill="#b2ab70" opacity="0.3"/>
  
  <ellipse cx="750" cy="450" rx="40" ry="80" fill="#16446e" opacity="0.4"/>
  <ellipse cx="770" cy="400" rx="60" ry="40" fill="#b2ab70" opacity="0.3"/>
  
  <!-- Garden elements -->
  <circle cx="200" cy="550" r="30" fill="#b2ab70" opacity="0.3"/>
  <circle cx="220" cy="530" r="20" fill="#16446e" opacity="0.2"/>
  
  <circle cx="600" cy="550" r="30" fill="#b2ab70" opacity="0.3"/>
  <circle cx="580" cy="530" r="20" fill="#16446e" opacity="0.2"/>
  
  <!-- Pathway -->
  <ellipse cx="400" cy="520" rx="150" ry="20" fill="#0a0d29" opacity="0.3"/>
  <ellipse cx="400" cy="540" rx="120" ry="15" fill="#16446e" opacity="0.2"/>
  
  <!-- Decorative elements -->
  <circle cx="100" cy="100" r="3" fill="#b2ab70" opacity="0.4"/>
  <circle cx="150" cy="80" r="2" fill="#b2ab70" opacity="0.5"/>
  <circle cx="200" cy="120" r="2.5" fill="#b2ab70" opacity="0.3"/>
  
  <circle cx="600" cy="100" r="3" fill="#b2ab70" opacity="0.4"/>
  <circle cx="650" cy="80" r="2" fill="#b2ab70" opacity="0.5"/>
  <circle cx="700" cy="120" r="2.5" fill="#b2ab70" opacity="0.3"/>
</svg>