<svg width="1920" height="1080" viewBox="0 0 1920 1080" fill="none" xmlns="http://www.w3.org/2000/svg">
  <!-- Background gradient -->
  <defs>
    <linearGradient id="heroGradient1" x1="0%" y1="0%" x2="100%" y2="100%">
      <stop offset="0%" style="stop-color:#16446e;stop-opacity:1" />
      <stop offset="50%" style="stop-color:#0a0d29;stop-opacity:0.8" />
      <stop offset="100%" style="stop-color:#b2ab70;stop-opacity:0.6" />
    </linearGradient>
    <radialGradient id="sunGradient" cx="50%" cy="30%" r="40%">
      <stop offset="0%" style="stop-color:#b2ab70;stop-opacity:0.8" />
      <stop offset="100%" style="stop-color:#b2ab70;stop-opacity:0.2" />
    </radialGradient>
  </defs>
  
  <!-- Sky background -->
  <rect width="1920" height="1080" fill="url(#heroGradient1)"/>
  
  <!-- Sun/Moon -->
  <circle cx="1600" cy="300" r="120" fill="url(#sunGradient)"/>
  
  <!-- Mountains background -->
  <path d="M0 600 Q400 400 800 500 Q1200 350 1600 450 Q1800 400 1920 480 L1920 1080 L0 1080 Z" fill="#0a0d29" opacity="0.6"/>
  <path d="M0 700 Q300 550 600 600 Q900 500 1200 580 Q1500 520 1920 600 L1920 1080 L0 1080 Z" fill="#16446e" opacity="0.4"/>
  
  <!-- Trees silhouettes -->
  <ellipse cx="200" cy="800" rx="15" ry="80" fill="#0a0d29" opacity="0.7"/>
  <ellipse cx="180" cy="780" rx="25" ry="40" fill="#0a0d29" opacity="0.5"/>
  <ellipse cx="220" cy="790" rx="20" ry="35" fill="#0a0d29" opacity="0.5"/>
  
  <ellipse cx="400" cy="750" rx="20" ry="100" fill="#0a0d29" opacity="0.6"/>
  <ellipse cx="375" cy="720" rx="30" ry="50" fill="#0a0d29" opacity="0.4"/>
  <ellipse cx="425" cy="730" rx="25" ry="45" fill="#0a0d29" opacity="0.4"/>
  
  <ellipse cx="1400" cy="780" rx="18" ry="90" fill="#0a0d29" opacity="0.7"/>
  <ellipse cx="1380" cy="750" rx="28" ry="45" fill="#0a0d29" opacity="0.5"/>
  <ellipse cx="1420" cy="760" rx="22" ry="40" fill="#0a0d29" opacity="0.5"/>
  
  <!-- Hotel building silhouette -->
  <rect x="800" y="650" width="320" height="200" fill="#0a0d29" opacity="0.8"/>
  <rect x="820" y="600" width="80" height="50" fill="#0a0d29" opacity="0.8"/>
  <rect x="1020" y="620" width="60" height="30" fill="#0a0d29" opacity="0.8"/>
  
  <!-- Windows -->
  <rect x="830" y="680" width="15" height="20" fill="#b2ab70" opacity="0.6"/>
  <rect x="860" y="680" width="15" height="20" fill="#b2ab70" opacity="0.6"/>
  <rect x="890" y="680" width="15" height="20" fill="#b2ab70" opacity="0.6"/>
  <rect x="920" y="680" width="15" height="20" fill="#b2ab70" opacity="0.6"/>
  <rect x="950" y="680" width="15" height="20" fill="#b2ab70" opacity="0.6"/>
  <rect x="980" y="680" width="15" height="20" fill="#b2ab70" opacity="0.6"/>
  <rect x="1010" y="680" width="15" height="20" fill="#b2ab70" opacity="0.6"/>
  <rect x="1040" y="680" width="15" height="20" fill="#b2ab70" opacity="0.6"/>
  <rect x="1070" y="680" width="15" height="20" fill="#b2ab70" opacity="0.6"/>
  
  <rect x="830" y="720" width="15" height="20" fill="#b2ab70" opacity="0.4"/>
  <rect x="860" y="720" width="15" height="20" fill="#b2ab70" opacity="0.4"/>
  <rect x="890" y="720" width="15" height="20" fill="#b2ab70" opacity="0.4"/>
  <rect x="920" y="720" width="15" height="20" fill="#b2ab70" opacity="0.4"/>
  <rect x="950" y="720" width="15" height="20" fill="#b2ab70" opacity="0.4"/>
  <rect x="980" y="720" width="15" height="20" fill="#b2ab70" opacity="0.4"/>
  <rect x="1010" y="720" width="15" height="20" fill="#b2ab70" opacity="0.4"/>
  <rect x="1040" y="720" width="15" height="20" fill="#b2ab70" opacity="0.4"/>
  <rect x="1070" y="720" width="15" height="20" fill="#b2ab70" opacity="0.4"/>
  
  <!-- Entrance -->
  <rect x="940" y="780" width="40" height="70" fill="#b2ab70" opacity="0.8"/>
  
  <!-- Decorative elements -->
  <circle cx="100" cy="200" r="3" fill="#b2ab70" opacity="0.3"/>
  <circle cx="150" cy="150" r="2" fill="#b2ab70" opacity="0.4"/>
  <circle cx="200" cy="180" r="2.5" fill="#b2ab70" opacity="0.3"/>
  <circle cx="1700" cy="150" r="2" fill="#b2ab70" opacity="0.4"/>
  <circle cx="1750" cy="200" r="3" fill="#b2ab70" opacity="0.3"/>
  <circle cx="1800" cy="120" r="2.5" fill="#b2ab70" opacity="0.4"/>
  
  <!-- Ground/Garden area -->
  <ellipse cx="960" cy="900" rx="200" ry="30" fill="#b2ab70" opacity="0.3"/>
  <ellipse cx="960" cy="920" rx="150" ry="20" fill="#16446e" opacity="0.2"/>
</svg>