<svg width="120" height="60" viewBox="0 0 120 60" fill="none" xmlns="http://www.w3.org/2000/svg">
  <!-- Background circle -->
  <circle cx="30" cy="30" r="28" fill="#0a0d29" stroke="#b2ab70" stroke-width="2"/>
  
  <!-- Radio waves -->
  <path d="M15 20 Q30 10 45 20" stroke="#b2ab70" stroke-width="2" fill="none"/>
  <path d="M12 25 Q30 12 48 25" stroke="#b2ab70" stroke-width="1.5" fill="none" opacity="0.7"/>
  <path d="M10 30 Q30 15 50 30" stroke="#b2ab70" stroke-width="1" fill="none" opacity="0.5"/>
  
  <!-- Hotel building silhouette -->
  <rect x="20" y="35" width="20" height="15" fill="#b2ab70"/>
  <rect x="22" y="37" width="2" height="3" fill="#0a0d29"/>
  <rect x="26" y="37" width="2" height="3" fill="#0a0d29"/>
  <rect x="30" y="37" width="2" height="3" fill="#0a0d29"/>
  <rect x="34" y="37" width="2" height="3" fill="#0a0d29"/>
  <rect x="22" y="42" width="2" height="3" fill="#0a0d29"/>
  <rect x="26" y="42" width="2" height="3" fill="#0a0d29"/>
  <rect x="30" y="42" width="2" height="3" fill="#0a0d29"/>
  <rect x="34" y="42" width="2" height="3" fill="#0a0d29"/>
  
  <!-- Door -->
  <rect x="28" y="46" width="4" height="4" fill="#0a0d29"/>
  
  <!-- Text -->
  <text x="65" y="25" font-family="serif" font-size="16" font-weight="bold" fill="#0a0d29">RÁDIO</text>
  <text x="65" y="42" font-family="serif" font-size="14" fill="#16446e">HOTEL</text>
  
  <!-- Decorative elements -->
  <circle cx="110" cy="15" r="2" fill="#b2ab70" opacity="0.6"/>
  <circle cx="115" cy="20" r="1.5" fill="#b2ab70" opacity="0.4"/>
  <circle cx="105" cy="25" r="1" fill="#b2ab70" opacity="0.3"/>
</svg>