<svg width="1920" height="1080" viewBox="0 0 1920 1080" fill="none" xmlns="http://www.w3.org/2000/svg">
  <!-- Background Gradient -->
  <defs>
    <linearGradient id="bgGradient" x1="0%" y1="0%" x2="100%" y2="100%">
      <stop offset="0%" style="stop-color:#0a0d29;stop-opacity:1" />
      <stop offset="30%" style="stop-color:#16446e;stop-opacity:1" />
      <stop offset="70%" style="stop-color:#0a0d29;stop-opacity:1" />
      <stop offset="100%" style="stop-color:#16446e;stop-opacity:1" />
    </linearGradient>
    
    <radialGradient id="lightGradient" cx="50%" cy="30%" r="60%">
      <stop offset="0%" style="stop-color:#b2ab70;stop-opacity:0.3" />
      <stop offset="50%" style="stop-color:#b2ab70;stop-opacity:0.1" />
      <stop offset="100%" style="stop-color:#b2ab70;stop-opacity:0" />
    </radialGradient>
    
    <linearGradient id="mountainGradient" x1="0%" y1="0%" x2="0%" y2="100%">
      <stop offset="0%" style="stop-color:#16446e;stop-opacity:0.8" />
      <stop offset="100%" style="stop-color:#0a0d29;stop-opacity:1" />
    </linearGradient>
  </defs>
  
  <!-- Base Background -->
  <rect width="1920" height="1080" fill="url(#bgGradient)"/>
  
  <!-- Light Effect -->
  <rect width="1920" height="1080" fill="url(#lightGradient)"/>
  
  <!-- Mountain Silhouettes -->
  <path d="M0 600 Q200 500 400 550 T800 520 Q1000 480 1200 500 T1600 480 Q1800 460 1920 480 V1080 H0 Z" fill="url(#mountainGradient)" opacity="0.6"/>
  <path d="M0 700 Q300 620 600 650 T1200 630 Q1500 600 1920 620 V1080 H0 Z" fill="url(#mountainGradient)" opacity="0.4"/>
  
  <!-- Trees Silhouettes -->
  <g opacity="0.3">
    <!-- Tree 1 -->
    <ellipse cx="150" cy="750" rx="25" ry="80" fill="#0a0d29"/>
    <rect x="145" y="780" width="10" height="40" fill="#0a0d29"/>
    
    <!-- Tree 2 -->
    <ellipse cx="300" cy="720" rx="30" ry="100" fill="#0a0d29"/>
    <rect x="294" y="760" width="12" height="50" fill="#0a0d29"/>
    
    <!-- Tree 3 -->
    <ellipse cx="1600" cy="740" rx="28" ry="90" fill="#0a0d29"/>
    <rect x="1594" y="770" width="12" height="45" fill="#0a0d29"/>
    
    <!-- Tree 4 -->
    <ellipse cx="1750" cy="760" rx="22" ry="70" fill="#0a0d29"/>
    <rect x="1746" y="785" width="8" height="35" fill="#0a0d29"/>
  </g>
  
  <!-- Decorative Elements -->
  <g opacity="0.2">
    <!-- Stars/Sparkles -->
    <circle cx="200" cy="150" r="2" fill="#b2ab70"/>
    <circle cx="400" cy="200" r="1.5" fill="#b2ab70"/>
    <circle cx="800" cy="120" r="2.5" fill="#b2ab70"/>
    <circle cx="1200" cy="180" r="1" fill="#b2ab70"/>
    <circle cx="1500" cy="100" r="2" fill="#b2ab70"/>
    <circle cx="1700" cy="160" r="1.5" fill="#b2ab70"/>
    
    <!-- Geometric Patterns -->
    <rect x="100" y="300" width="20" height="20" fill="none" stroke="#b2ab70" stroke-width="1" transform="rotate(45 110 310)"/>
    <rect x="1800" y="250" width="15" height="15" fill="none" stroke="#b2ab70" stroke-width="1" transform="rotate(30 1807 257)"/>
  </g>
  
  <!-- Subtle Texture Overlay -->
  <rect width="1920" height="1080" fill="url(#bgGradient)" opacity="0.1"/>
  
  <!-- Mist/Fog Effect -->
  <g opacity="0.15">
    <ellipse cx="400" cy="600" rx="200" ry="50" fill="#f6f5f1"/>
    <ellipse cx="1200" cy="650" rx="300" ry="40" fill="#f6f5f1"/>
    <ellipse cx="800" cy="700" rx="150" ry="30" fill="#f6f5f1"/>
  </g>
</svg>