<svg width="1920" height="1080" viewBox="0 0 1920 1080" fill="none" xmlns="http://www.w3.org/2000/svg">
  <!-- Background gradient -->
  <defs>
    <linearGradient id="heroGradient3" x1="0%" y1="0%" x2="100%" y2="100%">
      <stop offset="0%" style="stop-color:#0a0d29;stop-opacity:0.9" />
      <stop offset="50%" style="stop-color:#16446e;stop-opacity:0.7" />
      <stop offset="100%" style="stop-color:#f6f5f1;stop-opacity:1" />
    </linearGradient>
    <radialGradient id="moonGradient" cx="50%" cy="50%" r="50%">
      <stop offset="0%" style="stop-color:#f6f5f1;stop-opacity:0.9" />
      <stop offset="100%" style="stop-color:#b2ab70;stop-opacity:0.6" />
    </radialGradient>
  </defs>
  
  <!-- Night sky background -->
  <rect width="1920" height="1080" fill="url(#heroGradient3)"/>
  
  <!-- Moon -->
  <circle cx="1600" cy="200" r="80" fill="url(#moonGradient)"/>
  
  <!-- Stars -->
  <circle cx="200" cy="150" r="2" fill="#f6f5f1" opacity="0.8"/>
  <circle cx="350" cy="100" r="1.5" fill="#f6f5f1" opacity="0.6"/>
  <circle cx="500" cy="180" r="1" fill="#f6f5f1" opacity="0.7"/>
  <circle cx="650" cy="120" r="2" fill="#f6f5f1" opacity="0.9"/>
  <circle cx="800" cy="80" r="1.5" fill="#f6f5f1" opacity="0.5"/>
  <circle cx="950" cy="160" r="1" fill="#f6f5f1" opacity="0.8"/>
  <circle cx="1100" cy="90" r="2" fill="#f6f5f1" opacity="0.7"/>
  <circle cx="1250" cy="140" r="1.5" fill="#f6f5f1" opacity="0.6"/>
  <circle cx="1400" cy="110" r="1" fill="#f6f5f1" opacity="0.9"/>
  
  <!-- Hotel building silhouette -->
  <rect x="600" y="400" width="720" height="400" fill="#0a0d29" opacity="0.9"/>
  <rect x="650" y="350" width="120" height="50" fill="#0a0d29" opacity="0.9"/>
  <rect x="800" y="320" width="200" height="80" fill="#0a0d29" opacity="0.9"/>
  <rect x="1050" y="360" width="150" height="40" fill="#0a0d29" opacity="0.9"/>
  <rect x="1220" y="380" width="80" height="20" fill="#0a0d29" opacity="0.9"/>
  
  <!-- Illuminated windows -->
  <rect x="630" y="450" width="15" height="20" fill="#b2ab70" opacity="0.8"/>
  <rect x="660" y="450" width="15" height="20" fill="#b2ab70" opacity="0.6"/>
  <rect x="690" y="450" width="15" height="20" fill="#b2ab70" opacity="0.9"/>
  <rect x="720" y="450" width="15" height="20" fill="#b2ab70" opacity="0.7"/>
  <rect x="750" y="450" width="15" height="20" fill="#b2ab70" opacity="0.5"/>
  <rect x="780" y="450" width="15" height="20" fill="#b2ab70" opacity="0.8"/>
  
  <rect x="630" y="500" width="15" height="20" fill="#b2ab70" opacity="0.6"/>
  <rect x="660" y="500" width="15" height="20" fill="#b2ab70" opacity="0.8"/>
  <rect x="690" y="500" width="15" height="20" fill="#b2ab70" opacity="0.4"/>
  <rect x="720" y="500" width="15" height="20" fill="#b2ab70" opacity="0.9"/>
  <rect x="750" y="500" width="15" height="20" fill="#b2ab70" opacity="0.7"/>
  <rect x="780" y="500" width="15" height="20" fill="#b2ab70" opacity="0.6"/>
  
  <rect x="630" y="550" width="15" height="20" fill="#b2ab70" opacity="0.8"/>
  <rect x="660" y="550" width="15" height="20" fill="#b2ab70" opacity="0.5"/>
  <rect x="690" y="550" width="15" height="20" fill="#b2ab70" opacity="0.7"/>
  <rect x="720" y="550" width="15" height="20" fill="#b2ab70" opacity="0.6"/>
  <rect x="750" y="550" width="15" height="20" fill="#b2ab70" opacity="0.9"/>
  <rect x="780" y="550" width="15" height="20" fill="#b2ab70" opacity="0.4"/>
  
  <!-- Main entrance with lighting -->
  <rect x="940" y="720" width="80" height="80" fill="#b2ab70" opacity="0.9"/>
  <rect x="950" y="730" width="60" height="60" fill="#f6f5f1" opacity="0.3"/>
  
  <!-- Garden lighting -->
  <circle cx="400" cy="850" r="60" fill="#b2ab70" opacity="0.2"/>
  <circle cx="1520" cy="850" r="60" fill="#b2ab70" opacity="0.2"/>
  <circle cx="960" cy="900" r="80" fill="#b2ab70" opacity="0.3"/>
  
  <!-- Pathway lighting -->
  <ellipse cx="960" cy="950" rx="300" ry="20" fill="#b2ab70" opacity="0.4"/>
  
  <!-- Trees silhouettes -->
  <ellipse cx="150" cy="600" rx="12" ry="150" fill="#0a0d29" opacity="0.8"/>
  <ellipse cx="130" cy="500" rx="30" ry="25" fill="#0a0d29" opacity="0.6"/>
  <ellipse cx="170" cy="510" rx="25" ry="20" fill="#0a0d29" opacity="0.6"/>
  
  <ellipse cx="300" cy="650" rx="15" ry="120" fill="#0a0d29" opacity="0.8"/>
  <ellipse cx="280" cy="570" rx="35" ry="30" fill="#0a0d29" opacity="0.6"/>
  <ellipse cx="320" cy="580" rx="28" ry="25" fill="#0a0d29" opacity="0.6"/>
  
  <ellipse cx="1770" cy="600" rx="12" ry="150" fill="#0a0d29" opacity="0.8"/>
  <ellipse cx="1750" cy="500" rx="30" ry="25" fill="#0a0d29" opacity="0.6"/>
  <ellipse cx="1790" cy="510" rx="25" ry="20" fill="#0a0d29" opacity="0.6"/>
  
  <ellipse cx="1620" cy="650" rx="15" ry="120" fill="#0a0d29" opacity="0.8"/>
  <ellipse cx="1600" cy="570" rx="35" ry="30" fill="#0a0d29" opacity="0.6"/>
  <ellipse cx="1640" cy="580" rx="28" ry="25" fill="#0a0d29" opacity="0.6"/>
  
  <!-- Decorative elements -->
  <circle cx="100" cy="300" r="3" fill="#b2ab70" opacity="0.4"/>
  <circle cx="180" cy="250" r="2" fill="#b2ab70" opacity="0.5"/>
  <circle cx="250" cy="320" r="2.5" fill="#b2ab70" opacity="0.3"/>
  
  <circle cx="1820" cy="300" r="3" fill="#b2ab70" opacity="0.4"/>
  <circle cx="1740" cy="250" r="2" fill="#b2ab70" opacity="0.5"/>
  <circle cx="1670" cy="320" r="2.5" fill="#b2ab70" opacity="0.3"/>
</svg>