<svg width="1920" height="1080" viewBox="0 0 1920 1080" fill="none" xmlns="http://www.w3.org/2000/svg">
  <!-- Background gradient -->
  <defs>
    <linearGradient id="heroGradient2" x1="0%" y1="0%" x2="100%" y2="100%">
      <stop offset="0%" style="stop-color:#f6f5f1;stop-opacity:1" />
      <stop offset="50%" style="stop-color:#b2ab70;stop-opacity:0.6" />
      <stop offset="100%" style="stop-color:#16446e;stop-opacity:0.8" />
    </linearGradient>
    <radialGradient id="poolGradient" cx="50%" cy="50%" r="50%">
      <stop offset="0%" style="stop-color:#16446e;stop-opacity:0.8" />
      <stop offset="100%" style="stop-color:#0a0d29;stop-opacity:0.6" />
    </radialGradient>
  </defs>
  
  <!-- Sky background -->
  <rect width="1920" height="1080" fill="url(#heroGradient2)"/>
  
  <!-- Pool area -->
  <ellipse cx="960" cy="700" rx="400" ry="200" fill="url(#poolGradient)"/>
  <ellipse cx="960" cy="680" rx="380" ry="180" fill="#16446e" opacity="0.4"/>
  
  <!-- Pool deck -->
  <rect x="400" y="600" width="1120" height="300" fill="#b2ab70" opacity="0.3" rx="20"/>
  
  <!-- Lounge chairs -->
  <rect x="600" y="550" width="60" height="20" fill="#0a0d29" opacity="0.6" rx="5"/>
  <rect x="680" y="550" width="60" height="20" fill="#0a0d29" opacity="0.6" rx="5"/>
  <rect x="760" y="550" width="60" height="20" fill="#0a0d29" opacity="0.6" rx="5"/>
  
  <rect x="1100" y="550" width="60" height="20" fill="#0a0d29" opacity="0.6" rx="5"/>
  <rect x="1180" y="550" width="60" height="20" fill="#0a0d29" opacity="0.6" rx="5"/>
  <rect x="1260" y="550" width="60" height="20" fill="#0a0d29" opacity="0.6" rx="5"/>
  
  <!-- Umbrellas -->
  <circle cx="630" cy="520" r="40" fill="#b2ab70" opacity="0.7"/>
  <rect x="628" y="520" width="4" height="60" fill="#0a0d29" opacity="0.8"/>
  
  <circle cx="710" cy="520" r="40" fill="#b2ab70" opacity="0.7"/>
  <rect x="708" y="520" width="4" height="60" fill="#0a0d29" opacity="0.8"/>
  
  <circle cx="1130" cy="520" r="40" fill="#b2ab70" opacity="0.7"/>
  <rect x="1128" y="520" width="4" height="60" fill="#0a0d29" opacity="0.8"/>
  
  <circle cx="1210" cy="520" r="40" fill="#b2ab70" opacity="0.7"/>
  <rect x="1208" y="520" width="4" height="60" fill="#0a0d29" opacity="0.8"/>
  
  <!-- Hotel building in background -->
  <rect x="200" y="200" width="1520" height="300" fill="#0a0d29" opacity="0.4" rx="10"/>
  <rect x="250" y="150" width="200" height="50" fill="#0a0d29" opacity="0.5" rx="5"/>
  <rect x="500" y="120" width="150" height="80" fill="#0a0d29" opacity="0.5" rx="5"/>
  <rect x="1200" y="140" width="180" height="60" fill="#0a0d29" opacity="0.5" rx="5"/>
  <rect x="1450" y="160" width="120" height="40" fill="#0a0d29" opacity="0.5" rx="5"/>
  
  <!-- Windows pattern -->
  <g opacity="0.6">
    <rect x="280" y="250" width="12" height="18" fill="#b2ab70"/>
    <rect x="300" y="250" width="12" height="18" fill="#b2ab70"/>
    <rect x="320" y="250" width="12" height="18" fill="#b2ab70"/>
    <rect x="340" y="250" width="12" height="18" fill="#b2ab70"/>
    <rect x="360" y="250" width="12" height="18" fill="#b2ab70"/>
    <rect x="380" y="250" width="12" height="18" fill="#b2ab70"/>
    
    <rect x="280" y="280" width="12" height="18" fill="#b2ab70"/>
    <rect x="300" y="280" width="12" height="18" fill="#b2ab70"/>
    <rect x="320" y="280" width="12" height="18" fill="#b2ab70"/>
    <rect x="340" y="280" width="12" height="18" fill="#b2ab70"/>
    <rect x="360" y="280" width="12" height="18" fill="#b2ab70"/>
    <rect x="380" y="280" width="12" height="18" fill="#b2ab70"/>
  </g>
  
  <!-- Palm trees -->
  <ellipse cx="100" cy="400" rx="8" ry="120" fill="#0a0d29" opacity="0.7"/>
  <ellipse cx="80" cy="300" rx="40" ry="20" fill="#b2ab70" opacity="0.6" transform="rotate(-20 80 300)"/>
  <ellipse cx="120" cy="310" rx="35" ry="18" fill="#b2ab70" opacity="0.6" transform="rotate(15 120 310)"/>
  <ellipse cx="90" cy="290" rx="38" ry="19" fill="#b2ab70" opacity="0.6" transform="rotate(-45 90 290)"/>
  <ellipse cx="110" cy="295" rx="32" ry="16" fill="#b2ab70" opacity="0.6" transform="rotate(30 110 295)"/>
  
  <ellipse cx="1820" cy="400" rx="8" ry="120" fill="#0a0d29" opacity="0.7"/>
  <ellipse cx="1800" cy="300" rx="40" ry="20" fill="#b2ab70" opacity="0.6" transform="rotate(20 1800 300)"/>
  <ellipse cx="1840" cy="310" rx="35" ry="18" fill="#b2ab70" opacity="0.6" transform="rotate(-15 1840 310)"/>
  <ellipse cx="1810" cy="290" rx="38" ry="19" fill="#b2ab70" opacity="0.6" transform="rotate(45 1810 290)"/>
  <ellipse cx="1830" cy="295" rx="32" ry="16" fill="#b2ab70" opacity="0.6" transform="rotate(-30 1830 295)"/>
  
  <!-- Garden elements -->
  <circle cx="300" cy="950" r="80" fill="#b2ab70" opacity="0.3"/>
  <circle cx="320" cy="930" r="60" fill="#16446e" opacity="0.2"/>
  <circle cx="280" cy="940" r="40" fill="#0a0d29" opacity="0.3"/>
  
  <circle cx="1620" cy="950" r="80" fill="#b2ab70" opacity="0.3"/>
  <circle cx="1600" cy="930" r="60" fill="#16446e" opacity="0.2"/>
  <circle cx="1640" cy="940" r="40" fill="#0a0d29" opacity="0.3"/>
  
  <!-- Decorative elements -->
  <circle cx="150" cy="100" r="4" fill="#b2ab70" opacity="0.4"/>
  <circle cx="200" cy="80" r="3" fill="#b2ab70" opacity="0.5"/>
  <circle cx="250" cy="120" r="2" fill="#b2ab70" opacity="0.3"/>
  
  <circle cx="1670" cy="100" r="4" fill="#b2ab70" opacity="0.4"/>
  <circle cx="1720" cy="80" r="3" fill="#b2ab70" opacity="0.5"/>
  <circle cx="1770" cy="120" r="2" fill="#b2ab70" opacity="0.3"/>
</svg>